# xmcd CD database file
#
# Track frame offsets:
#	150
#	14977
#	29212
#	50365
#	66820
#	93207
#	109017
#	129532
#	157867
#
# Disc length: 2455 seconds
#
# Revision: 4
# Processed by: cddbd v1.5.2PL0 Copyright (c) Steve Scherf et al.
# Submitted via: CDex 2.06
#
DISCID=76099509
DTITLE=Ry Cooder - Get Rhythm
DYEAR=1987
DGENRE=Blues
TTITLE0=Get Rhythm
TTITLE1=Low--Commotion
TTITLE2=Going Back To Okinawa
TTITLE3=13 Question Method
TTITLE4=Women Will Rule The World
TTITLE5=All Shook Up
TTITLE6=I Can Tell By The Way You Smell
TTITLE7=Across The Borderline
TTITLE8=Let's Have A Ball
EXTD=YEAR: 1987
EXTT0=
EXTT1=
EXTT2=
EXTT3=
EXTT4=
EXTT5=
EXTT6=
EXTT7=
EXTT8=
PLAYORDER=
